<?xml version="1.0" encoding="utf-8"?>
<!-- Generator: Adobe Illustrator 19.0.0, SVG Export Plug-In . SVG Version: 6.00 Build 0)  -->
<svg version="1.1" id="Layer_1" xmlns="http://www.w3.org/2000/svg" xmlns:xlink="http://www.w3.org/1999/xlink" x="0px" y="0px"
	 viewBox="-267 370.7 76.5 52.3" style="enable-background:new -267 370.7 76.5 52.3;" xml:space="preserve">
<style type="text/css">
	.st0{fill:#444444;}
	.st1{fill:#FFFFFF;}
</style>
<g>
	<g id="XMLID_13_">
		<path id="XMLID_15_" class="st0" d="M-214.9,405.7c-5.6,0-10.2-4.6-10.2-10.2c0-0.9,0.2-1.8,0.4-2.7h-35.2
			c0.5,16.7,14.3,30.2,31.1,30.2c16.8,0,30.6-13.5,31.1-30.2h-7.5c0.2,0.9,0.4,1.7,0.4,2.7C-204.7,401.1-209.3,405.7-214.9,405.7z"
			/>
		<path id="XMLID_14_" class="st0" d="M-214.9,385.3c-4.1,0-7.7,2.5-9.3,6.1h18.6C-207.2,387.8-210.8,385.3-214.9,385.3z"/>
	</g>
	<g id="XMLID_16_">
		<path id="XMLID_18_" class="st1" d="M-235.9,397.3c-1-1-1.6-1.6-1.6-2.5c0-0.2,0.1-0.5,0.2-0.7c0-0.1,0.1-0.2,0.1-0.2
			c0.1-0.1,0.2-0.3,0.3-0.4c0.2-0.2,0.4-0.4,0.6-0.6c0.4-0.3,0.8-0.7,1.2-1c1.5-1.2,3.2-2.5,3-4.6c-0.2-1.9-1.8-2.9-3.1-3.7
			c-1-0.6-2-1.3-2.4-2.2c-0.6-1.8,1.3-4.8,5.2-8.5c0,0,0.4-1.2-0.1-1.7c-0.5-0.5-1.8-0.2-1.8-0.2c-5,4.6-6.9,8.4-6,11.3
			c0.6,1.9,2.2,2.9,3.5,3.6c1.1,0.7,1.7,1.1,1.8,1.6c0.1,0.7-0.9,1.5-2,2.3c-1.1,0.8-2.3,1.8-3,3.1l0,0v0c-0.1,0.3-0.2,0.5-0.3,0.8
			c0,0,0,0.1,0,0.1c-0.1,0.3-0.1,0.6-0.1,1c-0.1,2.1,1.2,3.3,2.4,4.4c0.9,0.9,1.7,1.7,1.9,2.8c0.2,1.8-1.3,3.9-4.4,6.2
			c0,0-0.6,1.3-0.1,1.8s1.7,0.3,1.7,0.3c4-3,5.8-5.9,5.5-8.7C-233.5,399.6-234.9,398.3-235.9,397.3z"/>
		<path id="XMLID_21_" class="st0" d="M-236.5,385.8c1.1,0.7,1.7,1.1,1.8,1.6c0.1,0.7-0.9,1.5-2,2.3c-0.6,0.5-1.3,1.1-1.9,1.7h4.1
			c1.4-1.1,2.7-2.3,2.5-4.2c-0.2-1.9-1.8-2.9-3.1-3.7c-1-0.6-2-1.3-2.4-2.2c-0.6-1.8,1.3-4.8,5.2-8.5c0,0,0.4-1.2-0.1-1.7
			c-0.5-0.5-1.8-0.2-1.8-0.2c-5,4.6-6.9,8.4-6,11.3C-239.4,384-237.8,385-236.5,385.8z"/>
	</g>
	<g id="XMLID_22_">
		<path id="XMLID_29_" class="st1" d="M-247,397.3c-1-1-1.6-1.6-1.6-2.5c0-0.2,0.1-0.5,0.2-0.7c0-0.1,0.1-0.2,0.1-0.2
			c0.1-0.1,0.2-0.3,0.3-0.4c0.2-0.2,0.4-0.4,0.6-0.6c0.4-0.3,0.8-0.7,1.2-1c1.5-1.2,3.2-2.5,3-4.6c-0.2-1.9-1.8-2.9-3.1-3.7
			c-1-0.6-2-1.3-2.4-2.2c-0.6-1.8,1.3-4.8,5.2-8.5c0,0,0.4-1.2-0.1-1.7c-0.5-0.5-1.8-0.2-1.8-0.2c-5,4.6-6.9,8.4-6,11.3
			c0.6,1.9,2.2,2.9,3.5,3.6c1.1,0.7,1.7,1.1,1.8,1.6c0.1,0.7-0.9,1.5-2,2.3c-1.1,0.8-2.3,1.8-3,3.1l0,0v0c-0.1,0.3-0.2,0.5-0.3,0.8
			c0,0,0,0.1,0,0.1c-0.1,0.3-0.1,0.6-0.1,1c-0.1,2.1,1.2,3.3,2.4,4.4c0.9,0.9,1.7,1.7,1.9,2.8c0.2,1.8-1.3,3.9-4.4,6.2
			c0,0-0.6,1.3-0.1,1.8s1.7,0.3,1.7,0.3c4-3,5.8-5.9,5.5-8.7C-244.5,399.6-245.9,398.3-247,397.3z"/>
		<path id="XMLID_23_" class="st0" d="M-247.5,385.8c1.1,0.7,1.7,1.1,1.8,1.6c0.1,0.7-0.9,1.5-2,2.3c-0.6,0.5-1.3,1.1-1.9,1.7h4.1
			c1.4-1.1,2.7-2.3,2.5-4.2c-0.2-1.9-1.8-2.9-3.1-3.7c-1-0.6-2-1.3-2.4-2.2c-0.6-1.8,1.3-4.8,5.2-8.5c0,0,0.4-1.2-0.1-1.7
			c-0.5-0.5-1.8-0.2-1.8-0.2c-5,4.6-6.9,8.4-6,11.3C-250.4,384-248.8,385-247.5,385.8z"/>
	</g>
</g>
</svg>
